<?xml version="1.0" encoding="utf-8"?>

<!-- Uploaded to: SVG Repo, www.svgrepo.com, Generator: SVG Repo Mixer Tools -->
<svg width="800px" height="800px" viewBox="0 0 32 32" fill="none" xmlns="http://www.w3.org/2000/svg">
<g clip-path="url(#clip0_901_1004)">
<path d="M23.875 25C23.875 25 27.937 29 28.937 30C30.547 31.609 31 31 31 30V8C31 7.447 30.553 7 30 7H8C7.447 7 7 7.447 7 8V26C7 26.553 7.447 27 8 27H22M13 15H25M13 19H18M25 4V2C25 1.437 24.604 1 24 1H2C1.447 1 1 1.447 1 2V20C1 20.553 1.447 21 2 21H7" stroke="#bfbfbf" stroke-width="2" stroke-linecap="round" stroke-linejoin="round"/>
</g>
<defs>
<clipPath id="clip0_901_1004">
<rect width="32" height="32" fill="white"/>
</clipPath>
</defs>
</svg>